<svg width="109" height="27" viewBox="0 0 109 27" fill="none" xmlns="http://www.w3.org/2000/svg">
<path fill-rule="evenodd" clip-rule="evenodd" d="M19.3223 1.31666C17.5594 0.472653 15.5848 0 13.4998 0C9.51899 0 5.94061 1.72296 3.46969 4.46384L9.82239 10.8165L19.3223 1.31666ZM2.89491 5.14512C2.62232 5.49064 2.36625 5.8498 2.1279 6.22142L8.2727 12.3662L9.19436 11.4446L2.89491 5.14512ZM1.65959 7.00917C1.43878 7.41109 1.23784 7.82547 1.05809 8.25099L6.72301 13.9159L7.64467 12.9943L1.65959 7.00917ZM0.712049 9.16101C0.552715 9.63072 0.418534 10.112 0.311109 10.6034L5.17333 15.4656L6.09498 14.5439L0.712049 9.16101ZM0.122475 11.6708C0.0461614 12.2341 0.00459335 12.8085 0 13.3916L3.62364 17.0153L4.54529 16.0936L0.122475 11.6708ZM0.0521449 14.6999C0.196828 16.343 0.635877 17.9016 1.31623 19.3227L2.99561 17.6433L0.0521449 14.6999ZM1.74704 20.1479C1.9672 20.5363 2.20605 20.9127 2.46238 21.2759L4.54529 19.193L3.62364 18.2713L1.74704 20.1479ZM3.00337 21.991C3.27755 22.3295 3.56777 22.6545 3.87288 22.9648L6.09499 20.7427L5.17332 19.821L3.00337 21.991ZM4.51615 23.5776C4.84204 23.8683 5.18211 24.1435 5.5352 24.4019L7.64468 22.2924L6.72303 21.3707L4.51615 23.5776ZM6.28208 24.9111C6.6621 25.1519 7.05497 25.3743 7.45943 25.577L9.19438 23.8421L8.27271 22.9204L6.28208 24.9111ZM8.32107 25.9715C9.56441 26.4883 10.9017 26.8247 12.3001 26.9479L9.82241 24.4701L8.32107 25.9715ZM13.6084 27C14.1915 26.9954 14.7659 26.9538 15.3292 26.8775L11.3721 22.9204L10.4504 23.8421L13.6084 27ZM16.3966 26.6889C16.888 26.5815 17.3693 26.4473 17.839 26.2879L12.9218 21.3707L12.0001 22.2924L16.3966 26.6889ZM18.749 25.9419C19.1745 25.7622 19.5889 25.5612 19.9908 25.3404L14.4715 19.8211L13.5498 20.7427L18.749 25.9419ZM20.7786 24.8721C21.1502 24.6337 21.5094 24.3777 21.8549 24.1051L16.0212 18.2714L15.0995 19.193L20.7786 24.8721ZM22.5362 23.5303C25.277 21.0594 27 17.481 27 13.5002C27 11.6655 26.634 9.91624 25.971 8.3215L16.6492 17.6433L22.5362 23.5303ZM25.5766 7.45986C25.3739 7.05539 25.1515 6.66252 24.9106 6.28251L15.0995 16.0936L16.0212 17.0153L25.5766 7.45986ZM24.4014 5.53563C24.143 5.18253 23.8679 4.84246 23.5772 4.51658L13.5498 14.544L14.4715 15.4656L24.4014 5.53563ZM22.9644 3.87331C22.6541 3.5682 22.3291 3.27798 21.9906 3.0038L12.0001 12.9943L12.9218 13.9159L22.9644 3.87331ZM21.2755 2.46281C20.9123 2.20648 20.5359 1.96762 20.1475 1.74747L10.4504 11.4446L11.3721 12.3662L21.2755 2.46281ZM5.17332 18.565L4.25167 17.6433L5.17333 16.7217L6.09498 17.6433L5.17332 18.565ZM6.72303 20.1147L5.80136 19.193L6.72301 18.2713L7.64468 19.193L6.72303 20.1147ZM8.27271 21.6644L7.35106 20.7427L8.27271 19.821L9.19437 20.7427L8.27271 21.6644ZM9.82241 23.2141L8.90074 22.2924L9.8224 21.3707L10.7441 22.2924L9.82241 23.2141ZM11.3721 21.6644L12.2938 20.7427L11.3721 19.821L10.4504 20.7427L11.3721 21.6644ZM9.8224 20.1147L10.7441 19.193L9.8224 18.2714L8.90075 19.193L9.8224 20.1147ZM8.27271 18.565L9.19437 17.6433L8.2727 16.7217L7.35105 17.6433L8.27271 18.565ZM6.72301 17.0153L7.64467 16.0936L6.72301 15.172L5.80136 16.0936L6.72301 17.0153ZM8.2727 15.4656L7.35105 14.5439L8.2727 13.6223L9.19436 14.5439L8.2727 15.4656ZM9.8224 17.0153L8.90073 16.0936L9.82239 15.172L10.7441 16.0936L9.8224 17.0153ZM11.3721 18.565L10.4504 17.6433L11.3721 16.7217L12.2937 17.6433L11.3721 18.565ZM12.9218 20.1147L12.0001 19.193L12.9218 18.2714L13.8434 19.193L12.9218 20.1147ZM14.4715 18.565L15.3931 17.6433L14.4715 16.7217L13.5498 17.6433L14.4715 18.565ZM12.9218 17.0153L13.8434 16.0936L12.9218 15.172L12.0001 16.0936L12.9218 17.0153ZM11.3721 15.4656L12.2937 14.544L11.3721 13.6223L10.4504 14.5439L11.3721 15.4656ZM9.82239 13.9159L10.744 12.9943L9.82239 12.0726L8.90073 12.9943L9.82239 13.9159Z" fill="#5AA2BA"/>
<path d="M44.96 9.32V16.312C44.96 17.0053 44.8747 17.6293 44.704 18.184C44.5333 18.7493 44.2667 19.224 43.904 19.608C43.552 20.0027 43.104 20.3067 42.56 20.52C42.016 20.7333 41.3707 20.84 40.624 20.84C40.3147 20.84 39.984 20.8133 39.632 20.76C39.2907 20.7067 38.9493 20.6267 38.608 20.52C38.2773 20.4133 37.9573 20.28 37.648 20.12C37.3387 19.96 37.0613 19.7787 36.816 19.576L37.92 18.088C38.2933 18.44 38.7147 18.7067 39.184 18.888C39.6533 19.08 40.128 19.176 40.608 19.176C41.0667 19.176 41.4507 19.1067 41.76 18.968C42.08 18.84 42.3307 18.6587 42.512 18.424C42.704 18.1893 42.8373 17.912 42.912 17.592C42.9973 17.272 43.04 16.92 43.04 16.536V15.976H43.008C42.7307 16.3493 42.3733 16.6373 41.936 16.84C41.5093 17.032 41.0293 17.128 40.496 17.128C39.92 17.128 39.3973 17.0213 38.928 16.808C38.4587 16.5947 38.0587 16.3067 37.728 15.944C37.408 15.5813 37.1573 15.16 36.976 14.68C36.7947 14.1893 36.704 13.672 36.704 13.128C36.704 12.5733 36.7893 12.0507 36.96 11.56C37.1413 11.0693 37.392 10.6427 37.712 10.28C38.0427 9.91733 38.4373 9.62933 38.896 9.416C39.3653 9.20267 39.888 9.096 40.464 9.096C41.008 9.096 41.5147 9.208 41.984 9.432C42.4533 9.656 42.8267 10.0027 43.104 10.472H43.136V9.32H44.96ZM40.864 10.664C40.512 10.664 40.1973 10.728 39.92 10.856C39.6533 10.984 39.424 11.16 39.232 11.384C39.0507 11.5973 38.9067 11.8533 38.8 12.152C38.704 12.4507 38.656 12.7707 38.656 13.112C38.656 13.4213 38.704 13.72 38.8 14.008C38.9067 14.296 39.0507 14.5573 39.232 14.792C39.424 15.016 39.6533 15.1973 39.92 15.336C40.1973 15.4747 40.5067 15.544 40.848 15.544C41.2 15.544 41.5147 15.48 41.792 15.352C42.08 15.2133 42.32 15.032 42.512 14.808C42.7147 14.584 42.8693 14.328 42.976 14.04C43.0827 13.7413 43.136 13.432 43.136 13.112C43.136 12.7813 43.0827 12.4667 42.976 12.168C42.8693 11.8693 42.7147 11.608 42.512 11.384C42.32 11.16 42.0853 10.984 41.808 10.856C41.5307 10.728 41.216 10.664 40.864 10.664ZM46.5414 9.32H48.3814V10.6H48.4134C48.6267 10.152 48.9254 9.78933 49.3094 9.512C49.6934 9.23467 50.1414 9.096 50.6534 9.096C50.728 9.096 50.808 9.10133 50.8934 9.112C50.9787 9.112 51.0534 9.12267 51.1174 9.144V10.904C50.9894 10.872 50.8774 10.8507 50.7814 10.84C50.696 10.8293 50.6107 10.824 50.5254 10.824C50.088 10.824 49.736 10.904 49.4694 11.064C49.2027 11.224 48.9947 11.416 48.8454 11.64C48.696 11.864 48.5947 12.0933 48.5414 12.328C48.488 12.5627 48.4614 12.7493 48.4614 12.888V17H46.5414V9.32ZM50.9202 13.128C50.9202 12.52 51.0269 11.9707 51.2402 11.48C51.4642 10.9787 51.7629 10.552 52.1362 10.2C52.5096 9.848 52.9522 9.576 53.4642 9.384C53.9762 9.192 54.5202 9.096 55.0962 9.096C55.6722 9.096 56.2162 9.192 56.7282 9.384C57.2402 9.576 57.6829 9.848 58.0562 10.2C58.4296 10.552 58.7229 10.9787 58.9362 11.48C59.1603 11.9707 59.2723 12.52 59.2723 13.128C59.2723 13.736 59.1603 14.2907 58.9362 14.792C58.7229 15.2933 58.4296 15.7253 58.0562 16.088C57.6829 16.44 57.2402 16.7173 56.7282 16.92C56.2162 17.1227 55.6722 17.224 55.0962 17.224C54.5202 17.224 53.9762 17.1227 53.4642 16.92C52.9522 16.7173 52.5096 16.44 52.1362 16.088C51.7629 15.7253 51.4642 15.2933 51.2402 14.792C51.0269 14.2907 50.9202 13.736 50.9202 13.128ZM52.8722 13.128C52.8722 13.4267 52.9149 13.7253 53.0002 14.024C53.0962 14.3227 53.2349 14.5893 53.4162 14.824C53.5976 15.0587 53.8269 15.2507 54.1042 15.4C54.3816 15.5493 54.7122 15.624 55.0962 15.624C55.4802 15.624 55.8109 15.5493 56.0882 15.4C56.3656 15.2507 56.5949 15.0587 56.7762 14.824C56.9576 14.5893 57.0909 14.3227 57.1762 14.024C57.2723 13.7253 57.3203 13.4267 57.3203 13.128C57.3203 12.8293 57.2723 12.536 57.1762 12.248C57.0909 11.9493 56.9576 11.6827 56.7762 11.448C56.5949 11.2133 56.3656 11.0267 56.0882 10.888C55.8109 10.7387 55.4802 10.664 55.0962 10.664C54.7122 10.664 54.3816 10.7387 54.1042 10.888C53.8269 11.0267 53.5976 11.2133 53.4162 11.448C53.2349 11.6827 53.0962 11.9493 53.0002 12.248C52.9149 12.536 52.8722 12.8293 52.8722 13.128ZM59.3259 9.32H61.4059L63.0059 14.824H63.0379L64.6859 9.32H66.7339L68.3979 14.824H68.4299L70.0619 9.32H72.0619L69.4059 17H67.4539L65.7099 11.624H65.6779L63.9499 17H61.9979L59.3259 9.32Z" fill="black"/>
<path d="M77.917 11.236C77.7557 11.0307 77.543 10.8693 77.279 10.752C77.0223 10.6273 76.773 10.565 76.531 10.565C76.4063 10.565 76.278 10.576 76.146 10.598C76.0213 10.62 75.9077 10.664 75.805 10.73C75.7023 10.7887 75.6143 10.8693 75.541 10.972C75.475 11.0673 75.442 11.192 75.442 11.346C75.442 11.478 75.4677 11.588 75.519 11.676C75.5777 11.764 75.6583 11.841 75.761 11.907C75.871 11.973 75.9993 12.0353 76.146 12.094C76.2927 12.1453 76.4577 12.2003 76.641 12.259C76.905 12.347 77.18 12.446 77.466 12.556C77.752 12.6587 78.0123 12.798 78.247 12.974C78.4817 13.15 78.676 13.37 78.83 13.634C78.984 13.8907 79.061 14.2133 79.061 14.602C79.061 15.0493 78.9767 15.438 78.808 15.768C78.6467 16.0907 78.4267 16.3583 78.148 16.571C77.8693 16.7837 77.5503 16.9413 77.191 17.044C76.8317 17.1467 76.4613 17.198 76.08 17.198C75.5227 17.198 74.9837 17.1027 74.463 16.912C73.9423 16.714 73.5097 16.4353 73.165 16.076L74.397 14.822C74.5877 15.0567 74.837 15.2547 75.145 15.416C75.4603 15.57 75.772 15.647 76.08 15.647C76.2193 15.647 76.355 15.6323 76.487 15.603C76.619 15.5737 76.7327 15.526 76.828 15.46C76.9307 15.394 77.0113 15.306 77.07 15.196C77.1287 15.086 77.158 14.954 77.158 14.8C77.158 14.6533 77.1213 14.5287 77.048 14.426C76.9747 14.3233 76.8683 14.2317 76.729 14.151C76.597 14.063 76.4283 13.986 76.223 13.92C76.025 13.8467 75.7977 13.7697 75.541 13.689C75.2917 13.6083 75.046 13.513 74.804 13.403C74.5693 13.293 74.3567 13.1537 74.166 12.985C73.9827 12.809 73.8323 12.6 73.715 12.358C73.605 12.1087 73.55 11.808 73.55 11.456C73.55 11.0233 73.638 10.653 73.814 10.345C73.99 10.037 74.221 9.784 74.507 9.586C74.793 9.388 75.1157 9.245 75.475 9.157C75.8343 9.06167 76.1973 9.014 76.564 9.014C77.004 9.014 77.4513 9.09467 77.906 9.256C78.368 9.41733 78.7713 9.65567 79.116 9.971L77.917 11.236ZM82.161 10.818V12.424H85.175V13.975H82.161V17H80.302V9.212H85.428V10.818H82.161Z" fill="#5AA2BA"/>
<path d="M93.71 11.61C93.71 12.0647 93.6257 12.4497 93.457 12.765C93.2883 13.073 93.061 13.3223 92.775 13.513C92.489 13.7037 92.159 13.843 91.785 13.931C91.411 14.019 91.0223 14.063 90.619 14.063H89.684V17H87.803V9.212H90.663C91.0883 9.212 91.4843 9.256 91.851 9.344C92.225 9.42467 92.5477 9.56033 92.819 9.751C93.0977 9.93433 93.314 10.18 93.468 10.488C93.6293 10.7887 93.71 11.1627 93.71 11.61ZM91.829 11.621C91.829 11.4377 91.7923 11.2873 91.719 11.17C91.6457 11.0527 91.5467 10.961 91.422 10.895C91.2973 10.829 91.1543 10.785 90.993 10.763C90.839 10.741 90.6777 10.73 90.509 10.73H89.684V12.567H90.476C90.652 12.567 90.8207 12.5523 90.982 12.523C91.1433 12.4937 91.2863 12.4423 91.411 12.369C91.543 12.2957 91.6457 12.2003 91.719 12.083C91.7923 11.9583 91.829 11.8043 91.829 11.621ZM99.4639 17L98.8589 15.471H95.8449L95.2729 17H93.2269L96.4939 9.212H98.3199L101.554 17H99.4639ZM97.3739 11.291L96.3839 13.964H98.3419L97.3739 11.291ZM108.857 15.922C108.513 16.318 108.087 16.6333 107.581 16.868C107.075 17.0953 106.492 17.209 105.832 17.209C105.231 17.209 104.674 17.11 104.16 16.912C103.654 16.714 103.214 16.4353 102.84 16.076C102.466 15.7093 102.173 15.273 101.96 14.767C101.748 14.261 101.641 13.7037 101.641 13.095C101.641 12.4717 101.748 11.907 101.96 11.401C102.18 10.895 102.481 10.466 102.862 10.114C103.244 9.75467 103.691 9.47967 104.204 9.289C104.718 9.09833 105.271 9.003 105.865 9.003C106.415 9.003 106.954 9.102 107.482 9.3C108.018 9.49067 108.45 9.773 108.78 10.147L107.504 11.423C107.328 11.181 107.097 11.0013 106.811 10.884C106.525 10.7667 106.232 10.708 105.931 10.708C105.601 10.708 105.297 10.7703 105.018 10.895C104.747 11.0123 104.512 11.1773 104.314 11.39C104.116 11.6027 103.962 11.8557 103.852 12.149C103.742 12.435 103.687 12.7503 103.687 13.095C103.687 13.447 103.742 13.7697 103.852 14.063C103.962 14.3563 104.113 14.6093 104.303 14.822C104.501 15.0273 104.736 15.1887 105.007 15.306C105.279 15.4233 105.576 15.482 105.898 15.482C106.272 15.482 106.599 15.4087 106.877 15.262C107.156 15.1153 107.38 14.9247 107.548 14.69L108.857 15.922Z" fill="black" fill-opacity="0.31"/>
</svg>
